<?xml version="1.0" encoding="utf-8"?>
<!-- Generator: Adobe Illustrator 25.2.0, SVG Export Plug-In . SVG Version: 6.00 Build 0)  -->
<svg version="1.1" id="Layer_1" xmlns="http://www.w3.org/2000/svg" xmlns:xlink="http://www.w3.org/1999/xlink" x="0px" y="0px"
	 viewBox="0 0 297.65 52.49" style="enable-background:new 0 0 297.65 52.49;" xml:space="preserve">
<g>
	<path d="M0,0h20.52c2.69,0,5.32,0.13,7.88,0.4c2.57,0.26,4.88,0.84,6.95,1.73c2.06,0.89,3.72,2.2,4.97,3.92
		c1.25,1.73,1.87,4.06,1.87,6.98c0,3.74-1.07,6.72-3.2,8.93c-2.14,2.21-4.91,3.34-8.32,3.38v0.29c4.61,0,8.22,1.04,10.84,3.13
		c2.62,2.09,3.92,4.93,3.92,8.53c0,1.58-0.25,3.26-0.76,5.04c-0.5,1.78-1.5,3.42-2.99,4.93c-1.49,1.51-3.6,2.76-6.34,3.74
		c-2.74,0.98-6.36,1.48-10.87,1.48H0v-0.94c1.73,0,2.99-0.22,3.78-0.65s1.19-1.46,1.19-3.1V4.54C4.92,3,4.5,2.02,3.71,1.58
		C2.92,1.15,1.68,0.94,0,0.94V0z M12.96,25.06h7.63c1.92,0,3.71-0.16,5.36-0.47c1.66-0.31,3.1-0.91,4.32-1.8
		c1.22-0.89,2.2-2.11,2.92-3.67c0.72-1.56,1.08-3.59,1.08-6.08c0-3.94-1-6.94-2.99-9c-1.99-2.06-5.1-3.1-9.32-3.1
		c-1.87,0-3.38,0.04-4.54,0.11c-1.15,0.07-2.06,0.23-2.74,0.47c-0.67,0.24-1.13,0.6-1.37,1.08c-0.24,0.48-0.36,1.13-0.36,1.94V25.06
		z M12.96,25.92v21.89c0,0.86,0.1,1.55,0.29,2.05c0.19,0.5,0.56,0.89,1.12,1.15c0.55,0.26,1.33,0.43,2.34,0.5
		c1.01,0.07,2.33,0.11,3.96,0.11c5.47,0,9.53-1.15,12.17-3.46c2.64-2.3,3.96-5.98,3.96-11.02c0-2.26-0.38-4.12-1.15-5.58
		c-0.77-1.46-1.82-2.62-3.17-3.46c-1.34-0.84-2.92-1.42-4.72-1.73c-1.8-0.31-3.76-0.47-5.87-0.47H12.96z"/>
	<path d="M64.87,0H82.8v0.94c-1.73,0-2.99,0.23-3.78,0.68c-0.79,0.46-1.19,1.52-1.19,3.2v42.91c0,0.86,0.16,1.55,0.47,2.05
		c0.31,0.5,0.84,0.89,1.58,1.15c0.74,0.26,1.74,0.43,2.99,0.5c1.25,0.07,2.78,0.11,4.61,0.11c3.07,0,5.71-0.52,7.92-1.55
		c2.21-1.03,4.1-2.44,5.69-4.21c1.58-1.78,2.93-3.86,4.03-6.26c1.1-2.4,2.06-4.97,2.88-7.7h0.94l-5.11,20.66H64.87v-0.94
		c0.82,0,1.51-0.01,2.09-0.04c0.58-0.02,1.07-0.13,1.48-0.32c0.41-0.19,0.73-0.5,0.97-0.94c0.24-0.43,0.38-1.03,0.43-1.8V4.82
		c0-1.68-0.4-2.75-1.19-3.2c-0.79-0.46-2.05-0.68-3.78-0.68V0z"/>
	<path d="M128.01,0h18.14v0.94c-0.86,0-1.62,0.05-2.27,0.14c-0.65,0.1-1.18,0.29-1.58,0.58c-0.41,0.29-0.72,0.72-0.94,1.3
		c-0.22,0.58-0.32,1.34-0.32,2.3v28.51c0,6.05,1.22,10.55,3.67,13.5c2.45,2.95,5.86,4.43,10.22,4.43c2.3,0,4.4-0.26,6.3-0.79
		c1.9-0.53,3.54-1.45,4.93-2.77c1.39-1.32,2.47-3.11,3.24-5.36c0.77-2.26,1.15-5.09,1.15-8.5V4.54c-0.1-1.58-0.56-2.58-1.4-2.99
		c-0.84-0.41-2.08-0.61-3.71-0.61V0h11.16v0.94c-0.67,0-1.32,0.05-1.94,0.14c-0.62,0.1-1.16,0.29-1.62,0.58
		c-0.46,0.29-0.83,0.72-1.12,1.3c-0.29,0.58-0.43,1.34-0.43,2.3v29.02c0,1.73-0.17,3.7-0.5,5.9c-0.34,2.21-1.12,4.28-2.34,6.23
		c-1.22,1.94-3.05,3.59-5.47,4.93s-5.75,2.02-9.97,2.02c-3.84,0-7.04-0.49-9.61-1.48c-2.57-0.98-4.63-2.35-6.19-4.1
		c-1.56-1.75-2.66-3.83-3.31-6.23c-0.65-2.4-0.97-4.99-0.97-7.78V5.26c0-0.96-0.11-1.73-0.32-2.3c-0.22-0.58-0.53-1.01-0.94-1.3
		c-0.41-0.29-0.94-0.48-1.58-0.58c-0.65-0.1-1.4-0.14-2.27-0.14V0z"/>
	<path d="M196.41,30.89h0.94c0,3.6,0.41,6.7,1.22,9.29c0.82,2.59,1.93,4.74,3.35,6.44c1.42,1.7,3.08,2.95,5,3.74
		c1.92,0.79,3.98,1.19,6.19,1.19c1.34,0,2.63-0.14,3.85-0.43c1.22-0.29,2.29-0.78,3.2-1.48c0.91-0.69,1.63-1.6,2.16-2.7
		c0.53-1.1,0.79-2.45,0.79-4.03c0-2.02-0.66-3.85-1.98-5.51c-1.32-1.66-2.96-3.26-4.93-4.82c-1.97-1.56-4.1-3.1-6.41-4.61
		c-2.3-1.51-4.44-3.1-6.41-4.75c-1.97-1.66-3.61-3.43-4.93-5.33c-1.32-1.9-1.98-4-1.98-6.3c0-2.11,0.44-3.94,1.33-5.47
		c0.89-1.54,2.05-2.82,3.49-3.85c1.44-1.03,3.05-1.8,4.82-2.3c1.78-0.5,3.55-0.76,5.33-0.76c1.82,0,3.37,0.19,4.64,0.58
		c1.27,0.38,2.38,0.8,3.31,1.26c0.94,0.46,1.76,0.88,2.48,1.26c0.72,0.38,1.44,0.58,2.16,0.58c0.96,0,1.61-0.2,1.94-0.61
		c0.33-0.41,0.5-1.16,0.5-2.27h0.94v16.99h-0.94c0-2.4-0.36-4.6-1.08-6.59c-0.72-1.99-1.7-3.7-2.95-5.11
		c-1.25-1.42-2.72-2.51-4.43-3.28c-1.71-0.77-3.56-1.15-5.58-1.15c-2.88,0-4.94,0.68-6.19,2.05c-1.25,1.37-1.87,3.11-1.87,5.22
		c0,2.35,0.64,4.42,1.91,6.19c1.27,1.78,2.87,3.41,4.79,4.9c1.92,1.49,4.01,2.93,6.26,4.32c2.26,1.39,4.34,2.88,6.26,4.46
		c1.92,1.58,3.52,3.34,4.79,5.26c1.27,1.92,1.91,4.15,1.91,6.7c0,1.82-0.26,3.55-0.79,5.18c-0.53,1.63-1.4,3.06-2.63,4.28
		c-1.22,1.22-2.87,2.18-4.93,2.88c-2.06,0.7-4.61,1.04-7.63,1.04c-1.97,0-3.62-0.18-4.97-0.54c-1.34-0.36-2.52-0.74-3.53-1.15
		c-1.01-0.41-1.91-0.79-2.7-1.15s-1.62-0.54-2.48-0.54c-2.21,0-3.31,0.84-3.31,2.52h-0.94V30.89z"/>
	<path d="M249.77,51.55c1.73,0,2.99-0.23,3.78-0.68c0.79-0.46,1.19-1.52,1.19-3.2V4.82c0-1.68-0.4-2.75-1.19-3.2
		c-0.79-0.46-2.05-0.68-3.78-0.68V0h17.86v0.94c-1.68,0-2.92,0.22-3.71,0.65c-0.79,0.43-1.21,1.44-1.26,3.02v20.38h22.1V4.82
		c0-1.68-0.41-2.75-1.22-3.2c-0.82-0.46-2.09-0.68-3.82-0.68V0h17.93v0.94c-1.73,0-2.99,0.23-3.78,0.68
		c-0.79,0.46-1.19,1.52-1.19,3.2v42.98c0,1.63,0.4,2.66,1.19,3.1s2.05,0.65,3.78,0.65v0.94h-17.93v-0.94c1.73,0,3-0.23,3.82-0.68
		c0.82-0.46,1.22-1.52,1.22-3.2V25.92h-22.1v22.46c0.1,1.39,0.55,2.27,1.37,2.63c0.82,0.36,2.02,0.54,3.6,0.54v0.94h-17.86V51.55z"
		/>
</g>
</svg>
